<?xml version="1.0" standalone="no"?>
<!DOCTYPE svg PUBLIC "-//W3C//DTD SVG 20010904//EN"
 "http://www.w3.org/TR/2001/REC-SVG-20010904/DTD/svg10.dtd">
<svg version="1.0" xmlns="http://www.w3.org/2000/svg"
 width="1024.000000pt" height="1024.000000pt" viewBox="0 0 1024.000000 1024.000000"
 preserveAspectRatio="xMidYMid meet">

<g transform="translate(0.000000,1024.000000) scale(0.100000,-0.100000)"
fill="#000000" stroke="none">
<path d="M0 5120 l0 -5120 5120 0 5120 0 0 5120 0 5120 -5120 0 -5120 0 0
-5120z m4680 362 c239 -501 437 -911 440 -911 3 0 201 410 440 911 239 501
467 975 505 1054 l70 142 164 -79 164 -79 109 0 c70 0 120 -5 141 -14 39 -17
92 -71 106 -109 8 -19 11 -422 11 -1282 0 -860 -3 -1263 -11 -1282 -14 -38
-67 -92 -106 -109 -40 -17 -446 -20 -490 -3 -30 11 -88 62 -106 94 -9 14 -13
174 -17 559 l-5 539 -323 -676 -324 -675 -103 48 c-56 27 -130 62 -164 79
l-61 31 -61 -31 c-34 -17 -108 -52 -164 -79 l-103 -48 -319 665 -318 665 -5
-529 c-4 -376 -8 -534 -17 -548 -18 -32 -76 -83 -106 -94 -38 -15 -446 -15
-484 0 -38 14 -92 67 -109 106 -12 27 -14 242 -14 1287 0 860 3 1264 11 1283
14 38 67 92 106 109 21 9 70 14 136 14 l104 0 164 79 164 79 70 -142 c39 -79
266 -553 505 -1054z"/>
</g>
</svg>
